<mxfile host="65bd71144e">
    <diagram id="rEBLwOUW9j5s5pWyw726" name="Page-1">
        <mxGraphModel dx="1128" dy="359" grid="1" gridSize="10" guides="1" tooltips="1" connect="1" arrows="1" fold="1" page="1" pageScale="1" pageWidth="850" pageHeight="1100" math="0" shadow="0">
            <root>
                <mxCell id="0"/>
                <mxCell id="1" parent="0"/>
                <mxCell id="74" value="User" style="swimlane;whiteSpace=wrap;html=1;" parent="1" vertex="1">
                    <mxGeometry x="160" y="80" width="200" height="840" as="geometry"/>
                </mxCell>
                <mxCell id="75" value="" style="ellipse;html=1;shape=startState;fillColor=#000000;strokeColor=#ff0000;" parent="74" vertex="1">
                    <mxGeometry x="85" y="40" width="30" height="30" as="geometry"/>
                </mxCell>
                <mxCell id="76" value="" style="edgeStyle=orthogonalEdgeStyle;html=1;verticalAlign=bottom;endArrow=open;endSize=8;strokeColor=#ff0000;" parent="74" source="75" edge="1">
                    <mxGeometry relative="1" as="geometry">
                        <mxPoint x="100" y="110" as="targetPoint"/>
                    </mxGeometry>
                </mxCell>
                <mxCell id="77" value="Pilih fitur tag number" style="rounded=1;whiteSpace=wrap;html=1;" parent="74" vertex="1">
                    <mxGeometry x="50" y="110" width="100" height="50" as="geometry"/>
                </mxCell>
                <mxCell id="78" value="Masukkan tag number" style="rounded=1;whiteSpace=wrap;html=1;" parent="74" vertex="1">
                    <mxGeometry x="50" y="200" width="100" height="50" as="geometry"/>
                </mxCell>
                <mxCell id="79" value="Pilih unit" style="rounded=1;whiteSpace=wrap;html=1;" parent="74" vertex="1">
                    <mxGeometry x="50" y="280" width="100" height="50" as="geometry"/>
                </mxCell>
                <mxCell id="80" value="Pilih kategori peralatan" style="rounded=1;whiteSpace=wrap;html=1;" parent="74" vertex="1">
                    <mxGeometry x="50" y="360" width="100" height="50" as="geometry"/>
                </mxCell>
                <mxCell id="81" value="" style="edgeStyle=none;html=1;" parent="74" source="82" target="83" edge="1">
                    <mxGeometry relative="1" as="geometry"/>
                </mxCell>
                <mxCell id="82" value="Pilih tipe peralatan" style="rounded=1;whiteSpace=wrap;html=1;" parent="74" vertex="1">
                    <mxGeometry x="50" y="440" width="100" height="50" as="geometry"/>
                </mxCell>
                <mxCell id="108" value="" style="edgeStyle=none;html=1;" parent="74" source="83" target="107" edge="1">
                    <mxGeometry relative="1" as="geometry"/>
                </mxCell>
                <mxCell id="83" value="Pilih status" style="rounded=1;whiteSpace=wrap;html=1;" parent="74" vertex="1">
                    <mxGeometry x="50" y="520" width="100" height="50" as="geometry"/>
                </mxCell>
                <mxCell id="107" value="Masukkan deskripsi tag number (opsional)" style="rounded=1;whiteSpace=wrap;html=1;" parent="74" vertex="1">
                    <mxGeometry x="50" y="600" width="100" height="50" as="geometry"/>
                </mxCell>
                <mxCell id="84" value="Sistem" style="swimlane;whiteSpace=wrap;html=1;" parent="1" vertex="1">
                    <mxGeometry x="361" y="80" width="210" height="840" as="geometry"/>
                </mxCell>
                <mxCell id="85" value="Menampilkan halaman tag number" style="rounded=1;whiteSpace=wrap;html=1;" parent="84" vertex="1">
                    <mxGeometry x="50" y="110" width="100" height="50" as="geometry"/>
                </mxCell>
                <mxCell id="86" value="Mengambil dari data unit" style="rounded=1;whiteSpace=wrap;html=1;" parent="84" vertex="1">
                    <mxGeometry x="50" y="280" width="100" height="50" as="geometry"/>
                </mxCell>
                <mxCell id="87" value="Mengambil dari data kategori peralatan" style="rounded=1;whiteSpace=wrap;html=1;" parent="84" vertex="1">
                    <mxGeometry x="50" y="360" width="100" height="50" as="geometry"/>
                </mxCell>
                <mxCell id="88" value="Mengambil dari data tipe peralatan" style="rounded=1;whiteSpace=wrap;html=1;" parent="84" vertex="1">
                    <mxGeometry x="50" y="440" width="100" height="50" as="geometry"/>
                </mxCell>
                <mxCell id="89" value="" style="edgeStyle=none;html=1;exitX=0.504;exitY=0.938;exitDx=0;exitDy=0;exitPerimeter=0;" parent="84" source="90" target="94" edge="1">
                    <mxGeometry relative="1" as="geometry"/>
                </mxCell>
                <mxCell id="112" value="Ya" style="edgeLabel;html=1;align=center;verticalAlign=middle;resizable=0;points=[];" parent="89" vertex="1" connectable="0">
                    <mxGeometry x="-0.1199" relative="1" as="geometry">
                        <mxPoint as="offset"/>
                    </mxGeometry>
                </mxCell>
                <mxCell id="110" style="edgeStyle=none;html=1;entryX=1;entryY=0.5;entryDx=0;entryDy=0;" parent="84" source="90" target="85" edge="1">
                    <mxGeometry relative="1" as="geometry">
                        <Array as="points">
                            <mxPoint x="189" y="625"/>
                            <mxPoint x="189" y="135"/>
                        </Array>
                    </mxGeometry>
                </mxCell>
                <mxCell id="111" value="Tidak" style="edgeLabel;html=1;align=center;verticalAlign=middle;resizable=0;points=[];" parent="110" vertex="1" connectable="0">
                    <mxGeometry x="-0.0847" y="2" relative="1" as="geometry">
                        <mxPoint as="offset"/>
                    </mxGeometry>
                </mxCell>
                <mxCell id="90" value="Validasi data" style="rhombus;whiteSpace=wrap;html=1;rounded=1;" parent="84" vertex="1">
                    <mxGeometry x="52.5" y="590" width="105" height="70" as="geometry"/>
                </mxCell>
                <mxCell id="93" value="" style="edgeStyle=none;html=1;" parent="84" source="94" target="96" edge="1">
                    <mxGeometry relative="1" as="geometry"/>
                </mxCell>
                <mxCell id="94" value="Menyimpan data" style="rounded=1;whiteSpace=wrap;html=1;" parent="84" vertex="1">
                    <mxGeometry x="55" y="700" width="100" height="50" as="geometry"/>
                </mxCell>
                <mxCell id="96" value="" style="ellipse;html=1;shape=endState;fillColor=#000000;strokeColor=#ff0000;" parent="84" vertex="1">
                    <mxGeometry x="90" y="790" width="30" height="30" as="geometry"/>
                </mxCell>
                <mxCell id="97" value="" style="endArrow=classic;html=1;exitX=1;exitY=0.5;exitDx=0;exitDy=0;entryX=0;entryY=0.5;entryDx=0;entryDy=0;" parent="1" source="77" target="85" edge="1">
                    <mxGeometry width="50" height="50" relative="1" as="geometry">
                        <mxPoint x="490" y="240" as="sourcePoint"/>
                        <mxPoint x="390" y="215" as="targetPoint"/>
                    </mxGeometry>
                </mxCell>
                <mxCell id="100" value="" style="edgeStyle=none;html=1;entryX=0.5;entryY=0;entryDx=0;entryDy=0;exitX=1;exitY=0.5;exitDx=0;exitDy=0;" parent="1" source="78" target="86" edge="1">
                    <mxGeometry relative="1" as="geometry">
                        <Array as="points">
                            <mxPoint x="460" y="305"/>
                        </Array>
                    </mxGeometry>
                </mxCell>
                <mxCell id="101" value="" style="edgeStyle=none;html=1;" parent="1" source="86" target="79" edge="1">
                    <mxGeometry relative="1" as="geometry"/>
                </mxCell>
                <mxCell id="102" value="" style="edgeStyle=none;html=1;" parent="1" source="87" target="80" edge="1">
                    <mxGeometry relative="1" as="geometry"/>
                </mxCell>
                <mxCell id="103" value="" style="edgeStyle=none;html=1;" parent="1" source="88" target="82" edge="1">
                    <mxGeometry relative="1" as="geometry"/>
                </mxCell>
                <mxCell id="104" style="edgeStyle=none;html=1;exitX=0.5;exitY=1;exitDx=0;exitDy=0;entryX=0.5;entryY=0;entryDx=0;entryDy=0;" parent="1" source="79" target="87" edge="1">
                    <mxGeometry relative="1" as="geometry">
                        <Array as="points">
                            <mxPoint x="260" y="420"/>
                            <mxPoint x="460" y="420"/>
                        </Array>
                    </mxGeometry>
                </mxCell>
                <mxCell id="105" style="edgeStyle=none;html=1;exitX=0.5;exitY=1;exitDx=0;exitDy=0;entryX=0.5;entryY=0;entryDx=0;entryDy=0;" parent="1" source="80" target="88" edge="1">
                    <mxGeometry relative="1" as="geometry">
                        <Array as="points">
                            <mxPoint x="260" y="500"/>
                            <mxPoint x="460" y="500"/>
                        </Array>
                    </mxGeometry>
                </mxCell>
                <mxCell id="106" style="edgeStyle=none;html=1;entryX=0.5;entryY=0;entryDx=0;entryDy=0;" parent="1" source="85" target="78" edge="1">
                    <mxGeometry relative="1" as="geometry">
                        <Array as="points">
                            <mxPoint x="460" y="260"/>
                            <mxPoint x="260" y="260"/>
                        </Array>
                    </mxGeometry>
                </mxCell>
                <mxCell id="109" value="" style="edgeStyle=none;html=1;entryX=0.042;entryY=0.501;entryDx=0;entryDy=0;entryPerimeter=0;" parent="1" source="107" target="90" edge="1">
                    <mxGeometry relative="1" as="geometry"/>
                </mxCell>
            </root>
        </mxGraphModel>
    </diagram>
</mxfile>